<?xml version="1.0" standalone="no"?>
<!DOCTYPE svg PUBLIC "-//W3C//DTD SVG 20010904//EN"
 "http://www.w3.org/TR/2001/REC-SVG-20010904/DTD/svg10.dtd">
<svg version="1.0" xmlns="http://www.w3.org/2000/svg"
 width="5000.000000pt" height="3000.000000pt" viewBox="0 0 5000.000000 3000.000000"
 preserveAspectRatio="xMidYMid meet">

<g transform="translate(0.000000,3000.000000) scale(0.100000,-0.100000)"
fill="#000000" stroke="none">
<path d="M6716 20793 c328 -696 605 -1469 703 -1963 53 -261 69 -484 48 -661
l-7 -67 77 -28 c599 -214 1238 -530 1670 -826 577 -395 920 -795 1048 -1222
16 -53 32 -96 36 -96 13 0 87 156 112 236 146 465 42 1044 -293 1630 -464 814
-1327 1664 -2585 2549 -247 174 -841 565 -858 565 -3 0 19 -53 49 -117z"/>
<path d="M4020 19045 c0 -3 36 -67 81 -143 237 -405 457 -907 557 -1274 69
-250 86 -373 87 -605 l0 -202 460 -175 c873 -332 984 -374 988 -370 4 4 -112
482 -183 749 -82 312 -179 601 -277 820 l-44 100 -776 515 c-860 571 -893 593
-893 585z"/>
<path d="M6005 18608 c249 -448 466 -964 609 -1451 494 -1677 376 -3428 -337
-5019 -77 -172 -210 -434 -202 -398 3 14 26 104 51 200 92 357 180 853 218
1230 37 364 41 449 41 970 -1 530 -1 540 -46 1032 l-12 127 -1405 936 c-818
546 -1402 929 -1399 918 3 -10 33 -82 66 -161 425 -1002 617 -2216 526 -3336
-58 -712 -226 -1429 -490 -2091 -73 -181 -160 -376 -151 -335 106 460 172 886
213 1370 25 297 25 1084 0 1402 -10 126 -22 249 -25 275 l-7 47 -1309 693
c-719 382 -1309 693 -1311 691 -1 -2 22 -56 51 -121 367 -809 544 -1721 513
-2647 -46 -1351 -570 -2646 -1517 -3750 -45 -52 -80 -96 -78 -97 1 -2 171 67
377 153 3639 1517 6470 2336 8484 2454 222 13 657 13 843 0 772 -55 1323 -245
1653 -570 128 -126 200 -236 244 -369 l18 -55 24 30 c13 16 55 79 93 141 241
389 397 795 472 1228 19 111 22 167 23 380 0 219 -3 266 -23 379 -13 71 -37
169 -53 218 -275 842 -2004 2489 -4884 4653 -548 412 -1293 955 -1310 955 -3
0 15 -37 40 -82z"/>
<path d="M1550 17436 c0 -3 31 -49 69 -103 95 -135 221 -342 302 -498 238
-454 356 -903 329 -1245 -4 -52 -5 -98 -1 -101 8 -8 1303 -331 1307 -326 8 8
-106 437 -170 643 -52 169 -152 457 -258 746 -8 22 -138 97 -771 444 -419 230
-772 424 -784 432 -13 8 -23 12 -23 8z"/>
<path d="M16485 17370 c-763 -44 -1424 -424 -1833 -1053 -182 -280 -310 -633
-358 -982 -24 -176 -24 -513 0 -680 60 -423 223 -818 468 -1137 353 -458 850
-753 1443 -859 171 -30 534 -38 734 -15 567 66 993 272 1408 681 l122 120
-259 263 -260 262 -93 -81 c-194 -172 -395 -306 -570 -379 -317 -133 -676
-163 -1002 -85 -568 135 -991 591 -1121 1209 -35 167 -44 458 -20 626 51 344
179 632 392 874 247 283 599 457 980 484 371 27 720 -66 1043 -278 75 -49 190
-139 324 -251 21 -17 39 -30 41 -28 6 10 472 547 493 570 l25 27 -99 87 c-439
389 -920 592 -1468 620 -228 11 -263 12 -390 5z"/>
<path d="M22109 17369 c-334 -16 -642 -96 -944 -244 -711 -347 -1184 -1011
-1291 -1815 -20 -150 -22 -451 -5 -595 68 -556 292 -1026 666 -1400 358 -358
794 -576 1320 -660 137 -22 500 -31 651 -15 457 46 861 201 1214 464 115 86
318 281 407 391 311 385 492 857 523 1363 36 608 -141 1181 -510 1647 -88 111
-277 296 -390 382 -466 353 -1012 513 -1641 482z m411 -769 c748 -122 1280
-788 1280 -1605 0 -635 -312 -1180 -827 -1443 -582 -297 -1300 -198 -1760 242
-348 332 -519 771 -500 1284 12 343 99 619 279 889 92 139 266 315 397 402
331 219 716 298 1131 231z"/>
<path d="M33320 17350 c-518 -63 -933 -308 -1158 -684 -130 -216 -189 -497
-163 -781 27 -312 122 -528 313 -711 238 -229 547 -364 1208 -530 341 -86 485
-129 619 -187 304 -129 411 -262 411 -507 0 -159 -43 -263 -152 -372 -185
-185 -529 -254 -953 -192 -121 17 -298 64 -403 105 -204 81 -442 223 -641 383
-52 42 -98 76 -103 76 -4 0 -116 -129 -249 -287 l-241 -287 33 -28 c202 -172
403 -305 634 -419 371 -182 737 -273 1160 -286 387 -12 694 45 981 182 256
121 449 293 579 515 166 283 217 684 130 1025 -80 319 -294 559 -660 742 -216
109 -416 176 -860 288 -637 161 -886 288 -966 495 -15 38 -23 87 -27 156 -8
176 28 277 142 389 85 84 177 133 322 172 89 23 117 26 274 26 186 0 273 -11
450 -58 203 -55 432 -164 653 -312 77 -51 144 -90 147 -86 4 5 102 142 218
305 l211 297 -47 39 c-129 106 -353 243 -529 322 -207 92 -430 156 -683 195
-124 19 -537 28 -650 15z"/>
<path d="M38713 17318 c-12 -20 -2013 -4601 -2013 -4610 0 -4 186 -8 414 -8
l414 0 178 418 c97 229 203 478 235 552 l58 135 1082 0 1083 0 231 -550 232
-550 426 -3 c307 -1 427 1 427 9 0 6 -453 1048 -1006 2315 l-1007 2304 -373 0
c-287 0 -375 -3 -381 -12z m762 -1885 c212 -491 385 -894 385 -897 0 -3 -351
-6 -781 -6 -453 0 -779 4 -777 9 48 130 774 1799 780 1793 4 -4 181 -409 393
-899z"/>
<path d="M26505 17288 c-3 -7 -4 -1041 -3 -2298 l3 -2285 405 0 405 0 3 798 2
797 502 -2 502 -3 518 -735 c285 -404 538 -763 563 -797 l45 -63 475 0 c306 0
475 4 475 10 0 5 -274 395 -610 865 -335 471 -610 859 -610 863 0 4 34 18 75
31 173 54 366 158 512 276 152 122 262 261 349 440 98 204 137 386 137 650 0
267 -39 449 -142 660 -60 122 -123 217 -197 296 -199 215 -460 360 -789 439
-263 64 -240 63 -1483 67 -926 3 -1133 2 -1137 -9z m2226 -753 c360 -54 589
-231 670 -520 19 -65 23 -106 23 -215 0 -158 -13 -223 -75 -350 -34 -69 -58
-101 -128 -170 -94 -93 -186 -149 -322 -194 -158 -53 -208 -56 -921 -56 l-658
0 0 760 0 760 658 0 c522 0 677 -3 753 -15z"/>
<path d="M43190 15000 l0 -2300 405 0 405 0 0 2300 0 2300 -405 0 -405 0 0
-2300z"/>
<path d="M46105 17288 c-3 -7 -4 -1041 -3 -2298 l3 -2285 405 0 405 0 3 798 2
797 499 0 500 0 563 -800 563 -800 479 0 c418 0 477 2 472 15 -3 8 -280 400
-615 870 -363 509 -606 858 -598 860 6 3 53 19 102 36 431 149 748 448 883
830 64 181 77 270 77 524 0 204 -3 242 -23 334 -140 622 -593 999 -1332 1108
-101 14 -252 17 -1248 20 -926 3 -1133 2 -1137 -9z m2306 -765 c376 -93 568
-290 609 -628 35 -282 -71 -538 -285 -690 -71 -51 -182 -105 -265 -128 -155
-45 -202 -47 -891 -47 l-659 0 0 760 0 761 703 -4 c672 -3 706 -4 788 -24z"/>
</g>
</svg>
