<?xml version="1.0" standalone="no"?>
<!DOCTYPE svg PUBLIC "-//W3C//DTD SVG 20010904//EN"
 "http://www.w3.org/TR/2001/REC-SVG-20010904/DTD/svg10.dtd">
<svg version="1.0" xmlns="http://www.w3.org/2000/svg"
 width="3840.000000pt" height="2160.000000pt" viewBox="0 0 3840.000000 2160.000000"
 preserveAspectRatio="xMidYMid meet">

<g transform="translate(0.000000,2160.000000) scale(0.100000,-0.100000)"
fill="#000000" stroke="none">
<path d="M11132 13840 c-200 -53 -360 -207 -432 -416 -105 -303 27 -638 302
-773 106 -52 182 -71 284 -71 327 0 592 207 651 509 14 72 15 93 4 160 -7 42
-26 111 -41 154 -122 333 -450 520 -768 437z"/>
<path d="M22710 11030 l0 -2730 470 0 469 0 4 1123 c3 1029 5 1128 21 1197 45
191 113 325 221 435 170 172 393 255 686 255 458 0 746 -238 823 -680 24 -137
25 -213 26 -1297 l0 -1033 470 0 470 0 0 1230 c0 814 -4 1264 -11 1328 -84
758 -560 1271 -1279 1377 -121 18 -388 21 -500 5 -321 -45 -548 -138 -771
-318 -42 -34 -92 -79 -112 -101 -19 -21 -38 -37 -41 -33 -3 3 -6 448 -6 989
l0 983 -470 0 -470 0 0 -2730z"/>
<path d="M470 11010 l0 -2730 470 0 470 0 0 2730 0 2730 -470 0 -470 0 0
-2730z"/>
<path d="M12710 12725 l0 -595 -250 0 -250 0 0 -420 0 -420 250 0 250 0 0
-1495 0 -1495 475 0 475 0 0 1495 0 1495 270 0 270 0 0 420 0 420 -270 0 -270
0 0 595 0 595 -475 0 -475 0 0 -595z"/>
<path d="M3730 12249 c-433 -23 -852 -181 -1181 -447 -102 -83 -281 -270 -353
-371 -251 -351 -379 -757 -379 -1201 0 -503 160 -948 474 -1325 425 -509 1098
-780 1775 -714 489 47 923 248 1260 584 313 311 507 703 569 1146 20 146 20
418 0 572 -102 775 -625 1411 -1363 1655 -250 83 -510 116 -802 101z m422
-952 c489 -128 818 -560 818 -1072 0 -317 -116 -597 -339 -815 -208 -204 -455
-302 -761 -303 -326 -1 -591 109 -807 336 -213 225 -313 501 -300 831 11 282
108 519 294 717 156 165 369 280 600 324 124 23 371 14 495 -18z"/>
<path d="M8210 12249 c-512 -28 -993 -240 -1346 -595 -328 -330 -528 -761
-575 -1240 -14 -144 -6 -411 16 -544 59 -354 209 -691 425 -955 70 -85 233
-244 315 -306 630 -482 1515 -564 2230 -207 191 96 335 199 499 358 345 334
546 756 596 1249 42 418 -56 848 -267 1175 -24 37 -43 69 -41 71 2 1 69 28
151 60 l147 59 0 378 0 378 -666 0 -666 0 -92 34 c-121 46 -275 76 -411 82
-60 3 -128 6 -150 7 -22 1 -96 -1 -165 -4z m339 -934 c173 -33 340 -103 456
-190 292 -220 448 -531 448 -895 0 -256 -74 -481 -225 -681 -272 -361 -732
-524 -1163 -410 -361 95 -643 357 -761 707 -150 448 -14 953 333 1234 147 119
325 202 501 234 107 19 311 20 411 1z"/>
<path d="M16200 12249 c-575 -31 -1099 -294 -1449 -730 -277 -343 -431 -773
-445 -1244 -20 -682 233 -1269 708 -1639 493 -385 1232 -513 1936 -336 387 97
780 310 1051 568 l80 77 -330 330 -331 330 -47 -46 c-129 -124 -299 -247 -443
-319 -326 -164 -718 -182 -1037 -47 -258 109 -466 336 -559 611 -13 38 -24 73
-24 78 0 4 673 8 1495 8 l1495 0 0 203 c0 360 -48 638 -160 925 -219 562 -638
966 -1183 1141 -138 44 -327 80 -453 87 -60 3 -125 6 -144 7 -19 1 -91 -1
-160 -4z m378 -889 c255 -67 450 -209 576 -419 42 -70 101 -219 120 -303 l6
-28 -995 0 c-703 0 -995 3 -995 11 0 25 83 220 124 289 147 250 378 410 669
466 112 21 389 12 495 -16z"/>
<path d="M20525 12229 c-892 -45 -1633 -643 -1850 -1494 -136 -532 -59 -1103
210 -1560 292 -497 779 -838 1360 -954 697 -139 1444 96 1962 617 51 51 93 96
93 100 0 4 -148 155 -329 336 l-328 328 -86 -83 c-313 -301 -666 -446 -1005
-410 -263 27 -485 133 -653 308 -211 221 -309 488 -309 839 0 298 99 541 306
748 212 211 490 315 809 303 176 -6 294 -36 449 -110 145 -71 266 -158 392
-283 l101 -102 327 327 c179 179 326 331 326 338 0 17 -213 236 -295 303 -109
89 -263 185 -397 249 -325 155 -678 220 -1083 200z"/>
<path d="M10780 10205 l0 -1925 475 0 475 0 0 1925 0 1925 -475 0 -475 0 0
-1925z"/>
<path d="M6283 7918 c42 -789 518 -1461 1242 -1751 715 -287 1545 -166 2135
310 89 72 257 243 321 328 184 240 315 526 374 813 25 121 45 288 45 373 l0
49 -470 0 -470 0 -4 -22 c-3 -13 -7 -54 -11 -93 -20 -237 -135 -481 -310 -661
-593 -607 -1641 -335 -1855 483 -11 42 -25 124 -31 184 l-12 109 -480 0 -480
0 6 -122z"/>
</g>
</svg>
